<svg
   width="135.05075mm"
   height="136.88853mm"
   viewBox="0 0 135.05075 136.88853"
   version="1.1"
   id="svg1"
   xml:space="preserve"
   xmlns="http://www.w3.org/2000/svg"
   xmlns:svg="http://www.w3.org/2000/svg"><defs
     id="defs1" />
     <g
     id="layer1"
     transform="translate(-43.692036,-66.700676)"><rect
       style="opacity:1;fill:#ff7824;fill-opacity:1;stroke-width:0.111778"
       id="rect7"
       width="135.05075"
       height="136.88853"
       x="43.692036"
       y="66.700676" /><path
       style="fill:#ffffff"
       d="m 87.221838,174.63899 c -7.101273,-1.03437 -9.714777,-4.55057 -10.597236,-14.2575 -0.310405,-3.41441 -1.241359,-4.62787 -4.365694,-5.69053 -3.058285,-1.04018 -4.827436,-1.18009 -4.639522,-0.36689 0.08051,0.3484 0.394413,1.70502 0.697566,3.01471 1.197901,5.1752 0.916253,8.14655 -0.841193,8.87451 -1.644646,0.68123 -2.619356,-0.33184 -2.619356,-2.72244 0,-1.54008 -0.626257,-2.5988 -2.152019,-3.63812 -4.012139,-2.73299 -4.822474,-6.17858 -3.453569,-14.68478 1.063121,-6.60611 1.449983,-11.82091 1.511371,-20.37292 0.367602,-51.210838 90.168444,-55.425771 98.648444,-4.63021 0.2308,1.38245 0.66238,4.8948 0.95909,7.80521 0.69748,6.84174 1.07493,8.81971 2.66961,13.98961 2.40189,7.78686 2.35785,8.78197 -0.65718,14.84997 -2.32834,4.68597 -2.6374,5.7046 -2.40089,7.91312 0.20459,1.91039 -0.10116,2.3606 -1.51122,2.22525 -1.97433,-0.18951 -2.31397,-3.98709 -0.89401,-9.9961 0.788,-3.3347 0.94151,-3.14918 -2.04492,-2.47132 -5.34435,1.21306 -5.90527,1.81058 -6.58103,7.01051 -1.23417,9.4969 -3.60806,12.26991 -11.32255,13.22619 -10.26863,1.27288 -17.77409,-3.1811 -20.81351,-12.3514 -1.31665,-3.9725 -2.04205,-4.89479 -3.84987,-4.89479 -2.11417,0 -2.54518,0.50712 -4.04782,4.7625 -3.45636,9.78819 -10.806788,13.99133 -21.694492,12.40542 z m 8.435914,-1.8163 c 9.441508,-2.41473 14.720868,-15.38119 8.070648,-19.82203 -9.682948,-6.46603 -24.023412,-2.90301 -24.746712,6.14853 -0.865589,10.83218 5.946432,16.41767 16.676064,13.6735 z m 44.607408,-0.22515 c 7.4311,-2.4004 9.18219,-16.91944 2.51203,-20.82841 -4.54323,-2.66251 -16.02319,-1.9733 -20.89632,1.25453 -6.97082,4.61728 -0.66019,18.1645 9.38595,20.1491 1.68551,0.33297 7.29736,-0.0258 8.99834,-0.57522 z m -21.75726,-19.6337 c 5.12082,-4.50752 16.40291,-5.51424 29.46055,-2.62882 3.83558,0.84757 4.18217,0.8424 9.95514,-0.14864 1.74151,-0.29896 0.96045,-4.0202 -2.18717,-10.42038 -2.86427,-5.82403 -3.40733,-7.61497 -4.36724,-14.40263 -1.22155,-8.63782 -2.21867,-11.54263 -5.22522,-15.22227 -0.86321,-1.05647 -2.26658,-3.2365 -3.11862,-4.84453 -2.32768,-4.39301 -3.6901,-5.934211 -4.56483,-5.16384 -3.62131,3.18926 -36.4893,11.27917 -59.39552,14.61922 -1.25361,0.1828 -1.280982,0.20785 -2.181771,1.99657 -1.73981,3.45481 -2.11608,4.95461 -3.445838,13.73505 -0.56554,3.73429 -1.319989,5.79826 -3.515209,9.61667 -2.396243,4.16808 -3.795284,8.68342 -2.949102,9.51808 0.707669,0.69805 8.415547,1.23223 10.554282,0.73146 12.5795,-2.94543 24.660798,-1.84283 29.794678,2.71923 1.73633,1.54293 9.39533,1.47093 11.18587,-0.10517 z"
       id="path7" />
       </g>

</svg>
