<?xml version="1.0" encoding="UTF-8" standalone="no"?>
<!-- Created with Inkscape (http://www.inkscape.org/) -->

<svg
   width="473.42737mm"
   height="33.906296mm"
   viewBox="0 0 473.42737 33.906296"
   version="1.1"
   id="svg1"
   xml:space="preserve"
   xmlns="http://www.w3.org/2000/svg"
   xmlns:svg="http://www.w3.org/2000/svg"><defs
     id="defs1" /><g
     id="layer1"
     transform="translate(137.97917,-70.227003)"><path
       d="m 335.44818,87.160868 v 10.53166 l -1.67535,0.4377 -1.32291,0.31212 -3.35174,-0.37362 -3.35121,-0.37362 -1.49759,0.33952 -1.49758,0.339 -3.79408,-0.18707 -3.79409,-0.18707 -0.96066,-0.67386 -0.96015,-0.67438 -1.4056,0.42116 -1.4056,0.42117 -2.92592,-0.58033 -2.9254,-0.58084 -3.175,-0.002 -3.175,-0.002 -1.36529,-0.3793 -1.36529,-0.37879 -0.73381,-1.73685 -0.7338,-1.73736 -0.60668,0.19276 -0.60617,0.19223 -0.22169,-0.69815 -0.22169,-0.69866 -1.27331,-1.11776 -1.27279,-1.11776 -4.31033,0.2222 -4.31085,0.2217 -1.01441,-0.41342 -1.01389,-0.41341 -9.70122,-0.0615 -9.70173,-0.062 -1.35909,-0.45372 -1.35909,-0.45424 -1.40405,0.22428 -1.40405,0.22479 -1.7818,0.90279 -1.7818,0.9033 -0.96377,1.05472 -0.96325,1.05471 -1.36167,0.30748 -1.36168,0.30696 -0.18551,-0.28629 -0.18501,-0.28577 -0.77256,-0.24081 -0.77204,-0.24082 -0.38706,0.72244 -0.38654,0.72244 h -0.37207 -0.37207 l -0.64751,0.79375 -0.6475,0.79375 -0.23565,-0.6041 -0.23513,-0.6041 -0.76119,0.47387 -0.76068,0.47336 -1.65571,0.20929 -1.6552,0.20929 -1.28105,-0.53537 -1.28106,-0.53537 -0.67748,0.21498 -0.67748,0.21549 -0.44287,0.42478 -0.44338,0.4253 -1.68052,1.36219 -1.68,1.36167 -1.9327,-0.0171 -1.93218,-0.0176 -1.03043,0.90433 -1.03042,0.90383 -2.58899,0.12299 -2.58848,0.12247 -1.5875,0.15451 -1.5875,0.15451 -0.9834,0.244432 -0.98288,0.24443 -1.32964,-1.397332 -1.32912,-1.39733 -1.63297,-0.22427 -1.63349,-0.22376 -1.69861,0.51573 -1.6986,0.51521 -0.89969,0.004 -0.89969,0.004 -0.44545,-0.44132 -0.44493,-0.4408 -0.3452,0.61134 -0.3452,0.61133 -0.71262,-0.4346 -0.71313,-0.43512 -0.49454,0.66715 -0.49506,0.66766 -0.10336,0.30902 -0.10283,0.30954 -1.88878,-0.5612 -1.88825,-0.56069 -2.16628,-0.0362 -2.16628,-0.0362 -1.1467,0.11524 -1.14618,0.11472 v 0.29921 0.2992 l -0.61753,0.0109 -0.61754,0.0114 -0.68471,0.5178 -0.68471,0.518322 h -0.5948 -0.59531 l -0.48369,0.58756 -0.48421,0.58808 -1.37614,0.99942 -1.37563,0.99994 h -0.84646 -0.84698 l -1.12861,-0.59118 -1.12913,-0.59118 -2.46962,-0.48938 -2.4691,-0.48937 -1.08985,-0.18655 -1.08934,-0.18604 -0.60668,0.60668 -0.60668,0.60668 -1.6552,0.18294 -1.6552,0.18293 -0.7953,0.84956 -0.7953,0.85008 -0.35915,-0.22221 -0.35915,-0.22169 -1.07073,-2.12132 -1.07074,-2.120802 -0.53123,0.20412 -0.53124,0.20361 -0.94774,-0.48524 -0.94775,-0.48576 -3.48144,0.29765 -3.48093,0.29766 -1.35547,-0.69143 -1.35547,-0.69195 -0.63149,0.008 -0.63148,0.008 -1.572,0.71365 -1.57251,0.71314 -1.60249,0.14418 -1.603,0.14469 -1.54203,-0.20619 -1.54254,-0.2067 -0.54519,-0.94982 -0.54518,-0.94981 -1.31413,-0.75603 -1.31362,-0.75602 -0.42116,1.01647 -0.42116,1.01648 -1.07281,0.44442 -1.07228,0.44441 -1.54823,-0.41393 -1.54822,-0.41444 h -1.40302 -1.40301 l -1.61748,1.23507 -1.61747,1.234552 h -0.41703 -0.41754 l -0.4408,0.70538 -0.44029,0.7059 h -2.24689 -2.24741 l -1.2578,0.52555 -1.25832,0.52555 -0.52762,-0.20257 -0.52761,-0.20206 -0.52297,-0.7984 -0.52297,-0.7984 -1.08572,-0.44958 -1.08572,-0.44959 v -0.251152 -0.25063 l -1.9482,0.16175 -1.9482,0.16123 -2.14251,-0.78083 -2.14198,-0.78083 -2.9006,0.73949 -2.9006,0.74 -1.91668,-0.37052 -1.91668,-0.37052 -1.5875,0.0739 -1.5875,0.0739 -1.20458,-0.62787 -1.20509,-0.62787 -1.57251,0.17725 -1.57304,0.17725 -0.23254,0.37672 -0.23254,0.37621 -1.50379,-0.51832 -1.50378,-0.5178 -0.6811,0.36432 -0.68161,0.36484 -0.65577,-0.65577 -0.65526,-0.65526 -3.21944,-0.44028 -3.21996,-0.43977 -0.32349,0.19999 -0.32298,0.19998 -1.13895,-0.56844 -1.13895,-0.56792 -1.72599,0.20412 -1.726,0.20464 -1.63245,0.72192 -1.63246,0.72244 h -1.34979 -1.34979 l -0.9865,0.42013 -0.98702,0.42013 -0.7798,0.68626 -0.7798,0.68678 -1.27124,-0.20619 -1.27175,-0.20619 -0.69815,1.183392 -0.69815,1.18339 -1.18443,0.56172 -1.18442,0.56224 -1.00511,-0.002 -1.0051,-0.002 -1.41077,-0.8692 -1.41128,-0.8692 -0.72709,-0.0109 -0.72709,-0.0109 -0.79736,0.74259 -0.79686,0.74207 -1.29811,0.16692 -1.29811,0.16743 -1.39836,-0.46871 -1.39888,-0.4687 -0.31626,-1.33997 -0.31626,-1.340492 -0.84388,-0.55345 -0.84439,-0.55294 -1.54048,0.38757 -1.54047,0.38809 -0.52917,0.20309 -0.52917,0.20309 -0.5643,-0.56431 -0.56431,-0.56379 -1.07435,-0.37465 -1.07487,-0.37465 -2.46652,0.60409 -2.46651,0.60462 -1.22215,-0.22945 -1.22215,-0.22892 -0.28319,-0.50591 -0.28267,-0.50592 -1.75544,-0.0486 -1.75494,-0.0491 -0.99322,0.39223 -0.9927,0.39274 H 6.8362 5.29469 l -2.57762,-0.54209 -2.5771,-0.54208 -2.37195,0.23358 -2.37195,0.23357 -0.39584,-0.86764 -0.39532,-0.86817 -0.99426,-0.58756 -0.99477,-0.58756 h -0.72554 -0.72502 l -0.35708,0.44132 -0.35657,0.4408 -0.84387,0.96996 -0.8444,0.97049 h -0.55965 -0.55914 l -0.28216,-0.45372 -0.28215,-0.45372 -1.02474,-0.78703 -1.02526,-0.78652 -1.20148,0.22531 -1.20148,0.22531 -0.19585,-0.74879 -0.19585,-0.74879 h -0.28888 -0.28835 l -0.89245,0.33951 -0.89245,0.339 -0.20051,-0.32401 -0.19999,-0.3235 -0.47077,0.18035 -0.47129,0.18087 -1.65829,-1.11931 -1.6583,-1.11931 -1.39268,0.22272 -1.39216,0.22273 -0.40463,-0.88832 -0.40463,-0.88832 -0.91312,0.0274 -0.91312,0.0279 -1.5875,-0.40463 -1.5875,-0.40463 -3.52744,0.19586 -3.52795,0.19637 -1.32291,0.22841 -1.32292,0.22841 v -0.41393 -0.41393 l -1.5167,0.88884 -1.51619,0.88883 -1.39423,-0.0377 -1.39371,-0.0382 -1.14102,-0.68472 -1.14153,-0.68523 -0.71055,0.22531 -0.71107,0.22583 v 0.32918 0.32866 h -0.51521 -0.51573 l -2.03244,1.65571 -2.03243,1.6552 -3.36104,0.81339 -3.36103,0.81338 -0.49041,5.2e-4 -0.49093,10e-4 -1.55908,0.77825 -1.55907,0.77876 -0.56999,-0.35966 -0.57051,-0.35967 -1.48983,0.53588 -1.49035,0.53589 -2.59261,-0.60668 -2.59312,-0.60669 -1.6397,0.005 -1.63969,0.005 -2.05879,1.08262 -2.05879,1.08314 -0.1819,0.2651 -0.1819,0.26562 -3.35173,0.357082 -3.35122,0.35708 -0.59428,-0.29403 -0.59376,-0.294562 -1.34617,0.004 -1.34617,0.004 -1.76424,0.490922 -1.76371,0.49041 -2.1978,0.91623 -2.1978,0.91622 h -1.25005 -1.25057 l -1.77767,-1.22318 -1.77819,-1.22267 -1.23145,-0.23099 -1.23145,-0.231512 -1.73426,0.230482 -1.73426,0.22996 -0.7767,-1.184942 -0.77669,-1.18443 -1.2175,-0.7984 -1.21801,-0.7984 -1.63194,0.20309 -1.63195,0.2036 -1.01595,-0.004 -1.01648,-0.004 -1.54668,0.74879 -1.54667,0.74879 -2.19935,-0.25115 -2.19987,-0.25063 -0.70538,-0.3669 -0.70538,-0.3669 -1.5875,-1.35289 -1.5875,-1.35238 -0.22945,0.78962 -0.22944,0.79013 -0.0351,-4.3217 -0.0351,-4.3217 H 98.73447 Z"
       id="path2" /><path
       d="M -137.97917,87.199415 V 76.667776 l 1.67535,-0.4377 1.32291,-0.31212 3.35174,0.37362 3.35121,0.37362 1.49759,-0.33952 1.49758,-0.339 3.79408,0.18707 3.79409,0.18707 0.96066,0.67386 0.96015,0.67438 1.4056,-0.42116 1.4056,-0.42117 2.92592,0.58033 2.9254,0.58084 3.175,0.002 3.175,0.002 1.36529,0.3793 1.36529,0.37879 0.73381,1.73685 0.7338,1.73736 0.60668,-0.19276 0.60617,-0.19223 0.22169,0.69815 0.22169,0.69866 1.27331,1.117754 1.27279,1.117754 4.31033,-0.2222 4.31085,-0.221697 1.01441,0.413417 1.01389,0.413407 9.70122,0.0615 9.70173,0.062 1.35909,0.453717 1.35909,0.454237 1.40405,-0.224277 1.40405,-0.22479 1.7818,-0.902784 1.7818,-0.903297 0.96377,-1.054714 0.96325,-1.054707 1.36167,-0.30748 1.36168,-0.30696 0.18551,0.28629 0.18501,0.28577 0.77256,0.24081 0.77204,0.24082 0.38706,-0.72244 0.38654,-0.72244 h 0.37207 0.37207 l 0.64751,-0.79375 0.6475,-0.79375 0.23565,0.6041 0.23513,0.6041 0.76119,-0.47387 0.76068,-0.47336 1.65571,-0.20929 1.6552,-0.20929 1.28105,0.53537 1.28106,0.53537 0.67748,-0.21498 0.67748,-0.21549 0.44287,-0.42478 0.44338,-0.4253 1.68052,-1.36219 1.68,-1.36167 1.9327,0.0171 1.93218,0.0176 1.03043,-0.90433 1.03042,-0.90383 2.58899,-0.12299 2.58848,-0.12247 1.5875,-0.15451 1.5875,-0.15451 0.9834,-0.244432 0.98288,-0.24443 1.32964,1.397332 1.32912,1.39733 1.63297,0.22427 1.63349,0.22376 1.69861,-0.51573 1.6986,-0.51521 0.89969,-0.004 0.89969,-0.004 0.44545,0.44132 0.44493,0.4408 0.3452,-0.61134 0.3452,-0.61133 0.71262,0.4346 0.71313,0.43512 0.49454,-0.66715 0.49506,-0.66766 0.10336,-0.30902 0.10283,-0.30954 1.88878,0.5612 1.88825,0.56069 2.16628,0.0362 2.16628,0.0362 1.1467,-0.11524 1.14618,-0.11472 v -0.29921 -0.2992 l 0.61753,-0.0109 0.61754,-0.0114 0.68471,-0.5178 0.68471,-0.518322 h 0.5948 0.59531 l 0.48369,-0.58756 0.48421,-0.58808 1.37614,-0.99942 1.37563,-0.99994 h 0.84646 0.84698 l 1.12861,0.59118 1.12913,0.59118 2.46962,0.48938 2.4691,0.48937 1.08985,0.18655 1.08934,0.18604 0.60668,-0.60668 0.60668,-0.60668 1.6552,-0.18294 1.6552,-0.18293 0.7953,-0.84956 0.7953,-0.85008 0.35915,0.22221 0.35915,0.22169 1.07073,2.12132 1.07074,2.120802 0.53123,-0.20412 0.53124,-0.20361 0.94774,0.48524 0.94775,0.48576 3.48144,-0.29765 3.48093,-0.29766 1.35547,0.69143 1.35547,0.69195 0.63149,-0.008 0.63148,-0.008 1.572,-0.71365 1.57251,-0.71314 1.60249,-0.14418 1.603,-0.14469 1.54203,0.20619 1.54254,0.2067 0.54519,0.94982 0.54518,0.94981 1.31413,0.75603 1.31362,0.75602 0.42116,-1.01647 0.42116,-1.01648 1.07281,-0.44442 1.07228,-0.44441 1.54823,0.41393 1.54822,0.41444 h 1.40302 1.40301 l 1.61748,-1.23507 1.61747,-1.234552 h 0.41703 0.41754 l 0.4408,-0.70538 0.44029,-0.7059 h 2.24689 2.24741 l 1.2578,-0.52555 1.25832,-0.52555 0.52762,0.20257 0.52761,0.20206 0.52297,0.7984 0.52297,0.7984 1.08572,0.44958 1.08572,0.44959 v 0.251152 0.25063 l 1.9482,-0.16175 1.9482,-0.16123 2.14251,0.78083 2.14198,0.78083 2.9006,-0.73949 2.9006,-0.74 1.91668,0.37052 1.91668,0.37052 1.5875,-0.0739 1.5875,-0.0739 1.20458,0.62787 1.20509,0.62787 1.57251,-0.17725 1.57304,-0.17725 0.23254,-0.37672 0.23254,-0.37621 1.50379,0.51832 1.50378,0.5178 0.6811,-0.36432 0.68161,-0.36484 0.65577,0.65577 0.65526,0.65526 3.21944,0.44028 3.21996,0.43977 0.32349,-0.19999 0.32298,-0.19998 1.13895,0.56844 1.13895,0.56792 1.72599,-0.20412 1.726,-0.20464 1.63245,-0.72192 1.63246,-0.72244 h 1.34979 1.34979 l 0.9865,-0.42013 0.98702,-0.42013 0.7798,-0.68626 0.7798,-0.68678 1.27124,0.20619 1.27175,0.20619 0.69815,-1.183392 0.69815,-1.18339 1.18443,-0.56172 1.18442,-0.56224 1.00511,0.002 1.0051,0.002 1.41077,0.8692 1.41128,0.8692 0.72709,0.0109 0.72709,0.0109 0.79736,-0.74259 0.79686,-0.74207 1.29811,-0.16692 1.29811,-0.16743 1.39836,0.46871 1.39888,0.4687 0.31626,1.33997 0.31626,1.340492 0.84388,0.55345 0.84439,0.55294 1.54048,-0.38757 1.54047,-0.38809 0.52917,-0.20309 0.52917,-0.20309 0.5643,0.56431 0.56431,0.56379 1.07435,0.37465 1.07487,0.37465 2.46652,-0.60409 2.46651,-0.60462 1.22215,0.22945 1.22215,0.22892 0.28319,0.50591 0.28267,0.50592 1.75544,0.0486 1.75494,0.0491 0.99322,-0.39223 0.9927,-0.39274 h 1.54151 1.54151 l 2.57762,0.54209 2.5771,0.54208 2.37195,-0.23358 2.37195,-0.23357 0.39584,0.86764 0.39532,0.86817 0.99426,0.58756 0.99477,0.58756 h 0.72554 0.72502 l 0.35708,-0.44132 0.35657,-0.4408 0.84387,-0.96996 0.8444,-0.97049 h 0.55965 0.55914 l 0.28216,0.45372 0.28215,0.45372 1.02474,0.78703 1.02526,0.78652 1.20148,-0.22531 1.20148,-0.22531 0.19585,0.74879 0.19585,0.74879 h 0.28888 0.28835 l 0.89245,-0.33951 0.89245,-0.339 0.20051,0.32401 0.19999,0.3235 0.47077,-0.18035 0.47129,-0.18087 1.65829,1.11931 1.6583,1.11931 1.39268,-0.22272 1.39216,-0.22273 0.40463,0.88832 0.40463,0.888317 0.91312,-0.0274 0.91312,-0.0279 1.5875,0.40463 1.5875,0.404627 3.52744,-0.19586 3.52795,-0.196367 1.32291,-0.22841 1.32292,-0.228407 v 0.413927 0.413927 l 1.5167,-0.888834 1.51619,-0.88883 1.39423,0.0377 1.39371,0.0382 1.14102,0.68472 1.14153,0.685227 0.71055,-0.22531 0.71107,-0.22583 v -0.329177 -0.32866 h 0.51521 0.51573 l 2.03244,-1.65571 2.03243,-1.6552 3.36104,-0.81339 3.36103,-0.81338 0.49041,-5.2e-4 0.49093,-10e-4 1.55908,-0.77825 1.55907,-0.77876 0.56999,0.35966 0.57051,0.35967 1.48983,-0.53588 1.49035,-0.53589 2.59261,0.60668 2.59312,0.60669 1.6397,-0.005 1.63969,-0.005 2.05879,-1.08262 2.05879,-1.08314 0.1819,-0.2651 0.1819,-0.26562 3.35173,-0.357082 3.35122,-0.35708 0.59428,0.29403 0.59376,0.294562 1.34617,-0.004 1.34617,-0.004 1.76424,-0.490922 1.76371,-0.49041 2.1978,-0.91623 2.1978,-0.91622 h 1.25005 1.25057 l 1.77767,1.22318 1.77819,1.22267 1.23145,0.23099 1.23145,0.231512 1.73426,-0.230482 1.73426,-0.22996 0.7767,1.184942 0.77669,1.18443 1.2175,0.7984 1.21801,0.7984 1.63194,-0.20309 1.63195,-0.2036 1.01595,0.004 1.01648,0.004 1.54668,-0.74879 1.54667,-0.74879 2.19935,0.25115 2.19987,0.25063 0.70538,0.3669 0.70538,0.3669 1.5875,1.35289 1.5875,1.35238 0.22945,-0.78962 0.22944,-0.79013 0.0351,4.3217 0.0351,4.321679 H 98.73454 Z"
       id="path3" /></g></svg>
